<mxfile host="app.diagrams.net" modified="2023-12-20T17:07:05.988Z" agent="Mozilla/5.0 (Macintosh; Intel Mac OS X 10_15_7) AppleWebKit/605.1.15 (KHTML, like Gecko) Version/17.1.2 Safari/605.1.15" version="22.1.11" etag="ZUwWw98EM6Nc37MB6lB8" type="github">
  <diagram name="Page-1" id="zgriKLXrOKnPqQ75fjnp">
    <mxGraphModel>
      <root>
        <mxCell id="0" />
        <mxCell id="1" parent="0" />
      </root>
    </mxGraphModel>
  </diagram>
</mxfile>
